<svg width="60" height="64" viewBox="0 0 60 64" fill="none" xmlns="http://www.w3.org/2000/svg">
<ellipse cx="0.466116" cy="0.467609" rx="0.466116" ry="0.467609" transform="matrix(0.64545 0.763802 -0.774722 0.632302 22.8154 16.8949)" fill="#80465D"/>
<ellipse cx="0.466116" cy="0.467609" rx="0.466116" ry="0.467609" transform="matrix(0.64545 0.763802 -0.774722 0.632302 24.2768 18.624)" fill="#80465D"/>
<ellipse cx="0.466116" cy="0.467609" rx="0.466116" ry="0.467609" transform="matrix(0.64545 0.763802 -0.774722 0.632302 21.863 19.9073)" fill="#80465D"/>
<ellipse cx="0.466116" cy="0.467609" rx="0.466116" ry="0.467609" transform="matrix(0.64545 0.763802 -0.774722 0.632302 20.212 18.1599)" fill="#80465D"/>
<ellipse cx="0.466116" cy="0.467609" rx="0.466116" ry="0.467609" transform="matrix(0.64545 0.763802 -0.774722 0.632302 34.95 21.0773)" fill="#80465D"/>
<ellipse cx="0.466116" cy="0.467609" rx="0.466116" ry="0.467609" transform="matrix(0.64545 0.763802 -0.774722 0.632302 36.4114 22.8064)" fill="#80465D"/>
<ellipse cx="0.466116" cy="0.467609" rx="0.466116" ry="0.467609" transform="matrix(0.64545 0.763802 -0.774722 0.632302 34.0803 24.2367)" fill="#80465D"/>
<ellipse cx="0.466116" cy="0.467609" rx="0.466116" ry="0.467609" transform="matrix(0.64545 0.763802 -0.774722 0.632302 32.3466 22.3422)" fill="#80465D"/>
<path d="M19.4474 23.2682C23.4613 25.4232 27.7533 21.0314 28.4027 20.9434C29.0522 20.8553 28.7169 27.7509 33.7046 27.823" stroke="#80465D" stroke-width="2"/>
<path d="M24.185 23.456C20.7865 29.8897 27.7833 32.8323 29.991 25.5478" stroke="#80465D" stroke-width="2"/>
<path d="M26.9057 25.1288L25.9647 27.2733" stroke="#80465D"/>
<ellipse cx="28.7456" cy="20.4013" rx="2.56279" ry="1.46445" transform="rotate(17.7511 28.7456 20.4013)" fill="#80465D"/>
<path fill-rule="evenodd" clip-rule="evenodd" d="M42.6229 10.4108C43.7592 8.88553 44.5581 8.16176 46.2317 8.16185C47.9054 8.16195 60.4578 20.6096 59.9871 23.3293C59.5164 26.049 55.1753 26.3628 52.6648 27.9841C50.1544 29.6055 47.9013 30.7231 45.6 30.2C43.2987 29.6769 44.1706 23.3508 46.7333 19.1667C49.2961 14.9825 46.0225 11.143 44.715 13.4966L46.0748 17.0531C42.422 24.0309 41.4641 27.3763 43.8258 31.2269C38.8602 38.4418 32.581 40.9027 23.2713 39.8567C23.2713 39.8567 18.7733 56.8024 17.0996 61.0912C15.426 65.3799 6.58699 63.0786 8.46985 57.9008C10.3527 52.7229 18.3026 38.0784 18.3026 38.0784C11.8066 33.2968 9.55595 29.7756 8.67906 21.6033C13.975 21.6055 14.3514 16.5049 15.0076 7.37725C15.5707 6.7727 16.2142 6.31507 17.5181 5.44209C16.215 3.1113 13.8236 3.32369 13.3339 8.7894C12.8442 14.2551 12.4448 16.4778 12.4448 16.4778C11.816 18.9438 11.2449 19.5085 9.93734 19.8747C8.62979 20.2408 5.76412 17.1462 3.86729 13.8104C3.86729 13.8104 -1.9382 8.47559 0.676888 5.9128C3.29198 3.35001 16.2566 -0.505991 18.4072 0.0549978C20.5577 0.615987 20.8375 1.92351 21.1269 3.76842C30.4978 1.21712 37.0032 3.15522 42.6229 10.4108ZM30.4889 7.84795C27.2747 7.50574 25.4627 7.52517 22.1729 8.7894C19.1947 9.93387 17.0996 12.0321 16.0536 13.4966C15.0076 14.961 14.0618 17.741 13.9092 19.1451C13.7424 21.4438 13.7822 22.6752 14.2753 24.6891C14.9342 26.9353 15.3286 27.7932 16.0536 28.9779C17.6682 31.0746 18.5591 31.8985 20.1331 33.0051C22.2757 34.4091 23.6856 34.964 26.8278 35.2541C29.1207 35.2213 30.3777 35.1894 32.581 34.4669C34.7056 33.5639 35.8966 33.0011 37.968 30.8057C39.3239 29.0866 40.1459 28.2122 40.9523 25.0525C41.4405 23.0439 41.5967 21.5424 40.8446 18.0468C40.2136 15.8125 39.5726 14.5526 37.968 12.2936C35.8475 10.2251 34.7946 9.00887 30.4889 7.84795Z" fill="#80465D"/>
</svg>
